Coordinates
version=1
nRows=36
nColumns=30
inDegrees=yes

Units are S.I. units (second, meters, Newtons, ...)
Angles are in degrees.

endheader
time	floatyaw	floatroll	floatpitch	floatx	floaty	floatz	pro_sup_l	deviation_l	flexion_l	cmc_flexion_l	cmc_abduction_l	mp_flexion_l	ip_flexion_l	2mcp_flexion_l	2mcp_abduction_l	2pm_flexion_l	2md_flexion_l	3mcp_flexion_l	3mcp_abduction_l	3pm_flexion_l	3md_flexion_l	4mcp_flexion_l	4mcp_abduction_l	4pm_flexion_l	4md_flexion_l	5mcp_flexion_l	5mcp_abduction_l	5pm_flexion_l	5md_flexion_l
-1.495000	-160.147433	-5.066637	-73.570646	0.081389	-0.182383	-0.017614	101.447041	4.026645	-0.917810	14.943097	8.229020	-25.629007	-41.374815	30.146024	6.818440	43.272881	29.717739	24.330191	4.277102	45.065860	30.025754	13.213753	-4.378083	52.566621	36.377280	1.955379	-8.220046	61.295449	42.620404
-1.485000	-160.147433	-5.066637	-73.570646	0.081380	-0.182391	-0.017628	101.428709	4.008828	-0.920921	14.910286	8.291128	-25.649513	-41.408300	30.176761	6.820931	43.259307	29.708113	24.333844	4.277603	45.075156	30.032052	13.208610	-4.383484	52.588445	36.388035	1.952737	-8.215039	61.294513	42.621313
-1.475000	-160.147433	-5.066637	-73.570646	0.081369	-0.182400	-0.017644	101.413845	3.990792	-0.929663	14.867094	8.350745	-25.653341	-41.431406	30.214463	6.827932	43.245477	29.693827	24.343991	4.278848	45.096344	30.040413	13.217979	-4.384797	52.600006	36.390985	1.969024	-8.215057	61.294372	42.618513
-1.465000	-160.147433	-5.066637	-73.570646	0.081356	-0.182406	-0.017657	101.406669	3.977132	-0.940262	14.815045	8.403600	-25.643359	-41.438942	30.251758	6.838791	43.231101	29.676533	24.358384	4.280511	45.124146	30.048836	13.239286	-4.382674	52.600011	36.386788	1.997732	-8.219035	61.295730	42.613900
-1.455000	-160.147433	-5.066637	-73.570646	0.081345	-0.182405	-0.017666	101.407894	3.970502	-0.947748	14.758490	8.447405	-25.626310	-41.429322	30.281781	6.850980	43.216858	29.659952	24.372103	4.282162	45.151568	30.056295	13.266021	-4.379164	52.590796	36.378551	2.027930	-8.223824	61.295879	42.608936
-1.445000	-160.147433	-5.066637	-73.570646	0.081335	-0.182396	-0.017670	101.415087	3.970935	-0.948300	14.702681	8.481511	-25.609647	-41.405718	30.300828	6.861040	43.204435	29.648169	24.380209	4.283435	45.171792	30.062508	13.290209	-4.376602	52.577290	36.370434	2.049273	-8.225995	61.291189	42.604413
-1.435000	-160.147433	-5.066637	-73.570646	0.081330	-0.182382	-0.017669	101.424374	3.976344	-0.941257	14.651837	8.506978	-25.598812	-41.375793	30.309424	6.866171	43.195957	29.643657	24.380342	4.284109	45.180550	30.067604	13.305745	-4.376484	52.564869	36.365791	2.056417	-8.223474	61.279744	42.600444
-1.425000	-160.147433	-5.066637	-73.570646	0.081326	-0.182367	-0.017666	101.432423	3.983761	-0.929415	14.608018	8.526726	-25.596184	-41.349255	30.311016	6.865706	43.193303	29.646402	24.373457	4.284198	45.177939	30.072078	13.310628	-4.378941	52.557342	36.365945	2.050443	-8.216193	61.262547	42.596699
-1.415000	-160.147433	-5.066637	-73.570646	0.081324	-0.182355	-0.017664	101.437566	3.990569	-0.917355	14.570924	8.544835	-25.601560	-41.334019	30.309436	6.861468	43.197592	29.654511	24.362423	4.284015	45.168511	30.076914	13.306946	-4.382982	52.555970	36.370151	2.036849	-8.205660	61.242939	42.592832
-1.405000	-160.147433	-5.066637	-73.570646	0.081322	-0.182350	-0.017663	101.439615	3.995137	-0.909010	14.538281	8.564731	-25.613138	-41.332893	30.307128	6.856675	43.208963	29.665634	24.349845	4.284134	45.159390	30.083522	13.298960	-4.387212	52.559792	36.376518	2.021893	-8.194035	61.224909	42.588844
-1.395000	-160.147433	-5.066637	-73.570646	0.081318	-0.182351	-0.017664	101.438849	3.996777	-0.906021	14.506667	8.587298	-25.628194	-41.342579	30.305063	6.854073	43.226607	29.678219	24.336823	4.285123	45.157372	30.093348	13.290654	-4.390505	52.566856	36.383237	2.009640	-8.183329	61.211404	42.585171
-1.385000	-160.147433	-5.066637	-73.570646	0.081313	-0.182357	-0.017667	101.435200	3.995408	-0.907646	14.472771	8.610343	-25.643458	-41.355430	30.303635	6.854561	43.248895	29.691946	24.323239	4.287162	45.166416	30.107349	13.284083	-4.392328	52.575591	36.389389	2.000948	-8.174909	61.203441	42.582521
-1.375000	-160.147433	-5.066637	-73.570646	0.081307	-0.182365	-0.017672	101.428416	3.991370	-0.911808	14.434761	8.630112	-25.655548	-41.362834	30.303223	6.857135	43.273641	29.707355	24.308831	4.289825	45.186640	30.125628	13.279111	-4.392699	52.585545	36.395047	1.994290	-8.169263	61.200262	42.581580
-1.365000	-160.147433	-5.066637	-73.570646	0.081301	-0.182372	-0.017677	101.419017	3.985524	-0.916332	14.393088	8.644019	-25.661656	-41.358420	30.303855	6.859979	43.298673	29.725163	24.293936	4.292244	45.215009	30.147428	13.274313	-4.391972	52.597134	36.400768	1.987483	-8.166031	61.200181	42.582746
-1.355000	-160.147433	-5.066637	-73.570646	0.081296	-0.182377	-0.017681	101.409086	3.979410	-0.919604	14.350275	8.652696	-25.660400	-41.339897	30.304459	6.861719	43.322572	29.745714	24.279330	4.293571	45.246919	30.171352	13.268159	-4.390640	52.610676	36.406911	1.979195	-8.164359	61.201532	42.585925
-1.345000	-160.147433	-5.066637	-73.570646	0.081294	-0.182378	-0.017685	101.401994	3.975080	-0.920532	14.309940	8.659799	-25.652725	-41.309479	30.302652	6.861955	43.344926	29.768663	24.265437	4.293397	45.277639	30.195571	13.259636	-4.389205	52.625405	36.413176	1.969344	-8.163437	61.203249	42.590519
-1.335000	-160.147433	-5.066637	-73.570646	0.081294	-0.182375	-0.017687	101.401057	3.974473	-0.918274	14.275667	8.669661	-25.642469	-41.273335	30.295692	6.860878	43.365709	29.792757	24.251780	4.291824	45.303112	30.217959	13.248204	-4.388101	52.639278	36.418625	1.958466	-8.162907	61.205030	42.595651
-1.325000	-160.147433	-5.066637	-73.570646	0.081298	-0.182368	-0.017688	101.408027	3.978624	-0.912298	14.250092	8.684488	-25.635960	-41.240347	30.282295	6.858676	43.384262	29.815770	24.237364	4.289257	45.320434	30.236312	13.233721	-4.387603	52.649805	36.422124	1.947037	-8.162921	61.207284	42.600515
-1.315000	-160.147433	-5.066637	-73.570646	0.081305	-0.182358	-0.017687	101.422487	3.987202	-0.902886	14.234155	8.703144	-25.640182	-41.220156	30.264137	6.855431	43.398904	29.834779	24.221881	4.286151	45.328483	30.248833	13.216842	-4.387741	52.655423	36.422883	1.935701	-8.163923	61.210865	42.604516
-1.305000	-160.147433	-5.066637	-73.570646	0.081313	-0.182347	-0.017686	101.442391	3.998662	-0.891552	14.226574	8.722404	-25.659902	-41.220587	30.245796	6.851626	43.407649	29.846888	24.206750	4.282886	45.328615	30.254776	13.199652	-4.388244	52.656394	36.420763	1.926130	-8.166340	61.216591	42.607106
-1.295000	-160.147433	-5.066637	-73.570646	0.081319	-0.182335	-0.017686	101.465046	4.010786	-0.880821	14.223899	8.739782	-25.695072	-41.245002	30.232886	6.848615	43.409574	29.850207	24.194974	4.279787	45.324851	30.254898	13.185689	-4.388629	52.654583	36.416211	1.921292	-8.170297	61.224714	42.607644
-1.285000	-160.147433	-5.066637	-73.570646	0.081322	-0.182325	-0.017686	101.487699	4.021268	-0.873275	14.221500	8.755920	-25.740107	-41.290599	30.229367	6.848420	43.405901	29.844755	24.189643	4.277178	45.322971	30.251423	13.178852	-4.388407	52.652336	36.410004	1.924242	-8.175409	61.234768	42.605703
-1.275000	-160.147433	-5.066637	-73.570646	0.081319	-0.182317	-0.017688	101.507550	4.028153	-0.870398	14.215149	8.774860	-25.785798	-41.348631	30.235558	6.852794	43.400159	29.832970	24.191951	4.275389	45.328622	30.247482	13.181489	-4.387296	52.651347	36.403064	1.935951	-8.180777	61.245956	42.601712
-1.265000	-160.147433	-5.066637	-73.570646	0.081312	-0.182312	-0.017691	101.521821	4.030244	-0.871920	14.202271	8.801969	-25.823102	-41.406916	30.247935	6.862128	43.397281	29.819479	24.200088	4.274688	45.345200	30.246182	13.192748	-4.385308	52.652260	36.396430	1.953781	-8.185277	61.257750	42.597349
-1.255000	-160.147433	-5.066637	-73.570646	0.081301	-0.182309	-0.017695	101.528462	4.027501	-0.876050	14.182103	8.840805	-25.846744	-41.453849	30.260772	6.874962	43.401892	29.809849	24.209859	4.275134	45.372478	30.249610	13.208379	-4.382690	52.655019	36.391240	1.971972	-8.188078	61.270188	42.595157
-1.245000	-160.147433	-5.066637	-73.570646	0.081289	-0.182308	-0.017698	101.527188	4.021202	-0.880435	14.154946	8.890792	-25.856684	-41.482296	30.268772	6.888468	43.416273	29.808463	24.216815	4.276442	45.406564	30.258037	13.222390	-4.379814	52.659297	36.388479	1.984047	-8.189073	61.283662	42.597467
-1.235000	-160.147433	-5.066637	-73.570646	0.081279	-0.182309	-0.017700	101.519921	4.013566	-0.883210	14.121475	8.947035	-25.856921	-41.491693	30.269387	6.899670	43.438832	29.816374	24.218590	4.277961	45.441152	30.269669	13.229764	-4.377122	52.664564	36.388554	1.985632	-8.188863	61.298439	42.605288
-1.225000	-160.147433	-5.066637	-73.570646	0.081273	-0.182312	-0.017701	101.510052	4.006869	-0.883573	14.082881	9.002398	-25.852695	-41.487431	30.263740	6.906741	43.464051	29.830451	24.215937	4.278859	45.469678	30.281246	13.228634	-4.375107	52.669946	36.391040	1.975965	-8.188207	61.314250	42.617779
-1.215000	-160.147433	-5.066637	-73.570646	0.081269	-0.182314	-0.017703	101.500983	4.002553	-0.881657	14.041564	9.050690	-25.847845	-41.477786	30.255723	6.909710	43.484393	29.844695	24.211735	4.278501	45.487709	30.289500	13.220617	-4.374230	52.674416	36.394924	1.957489	-8.187319	61.330131	42.632532
-1.205000	-160.147433	-5.066637	-73.570646	0.081269	-0.182314	-0.017704	101.494942	4.000898	-0.877999	14.001344	9.089160	-25.843552	-41.469690	30.249789	6.910278	43.493623	29.853289	24.208685	4.276830	45.494739	30.292855	13.209231	-4.374742	52.677502	36.399284	1.934258	-8.185599	61.344556	42.646462
-1.195000	-160.147433	-5.066637	-73.570646	0.081272	-0.182312	-0.017705	101.492672	4.001325	-0.873078	13.966422	9.118944	-25.838704	-41.465358	30.248628	6.910960	43.489904	29.853719	24.207340	4.274475	45.494509	30.292410	13.197632	-4.376486	52.680060	36.403913	1.910423	-8.182059	61.355837	42.656850
-1.185000	-160.147433	-5.066637	-73.570646	0.081276	-0.182307	-0.017706	101.493749	4.002914	-0.867209	13.939507	9.143497	-25.831403	-41.461556	30.251904	6.914092	43.476870	29.848082	24.205848	4.272454	45.493486	30.291484	13.187174	-4.378905	52.684459	36.409424	1.889426	-8.176145	61.362731	42.662125
-1.175000	-160.147433	-5.066637	-73.570646	0.081280	-0.182300	-0.017706	101.496973	4.004724	-0.860747	13.920340	9.166369	-25.820796	-41.451964	30.256528	6.921102	43.461972	29.841861	24.201392	4.271609	45.498050	30.293902	13.177433	-4.381348	52.693826	36.416777	1.873637	-8.168335	61.364974	42.662149
-1.165000	-160.147433	-5.066637	-73.570646	0.081285	-0.182292	-0.017706	101.500665	4.005881	-0.854261	13.905700	9.189694	-25.808366	-41.431279	30.258184	6.932066	43.453086	29.841078	24.192159	4.272166	45.511565	30.301910	13.167223	-4.383498	52.710660	36.426591	1.863914	-8.160038	61.363440	42.658045
-1.155000	-160.147433	-5.066637	-73.570646	0.081288	-0.182285	-0.017706	101.503118	4.005742	-0.848456	13.890933	9.213748	-25.797953	-41.398770	30.253430	6.945484	43.455227	29.849459	24.178530	4.273689	45.532583	30.314754	13.155697	-4.385606	52.735423	36.438648	1.859193	-8.152888	61.359786	42.651718
-1.145000	-160.147433	-5.066637	-73.570646	0.081289	-0.182280	-0.017708	101.503258	4.004181	-0.843859	13.872075	9.237259	-25.794288	-41.359478	30.241596	6.958439	43.468733	29.866797	24.163024	4.275438	45.554937	30.328585	13.142952	-4.388305	52.765720	36.451765	1.856707	-8.147921	61.355739	42.645165
